<?xml version="1.0" standalone="no"?>
<!DOCTYPE svg PUBLIC "-//W3C//DTD SVG 20010904//EN"
 "http://www.w3.org/TR/2001/REC-SVG-20010904/DTD/svg10.dtd">
<svg version="1.0" xmlns="http://www.w3.org/2000/svg"
 width="358.000000pt" height="358.000000pt" viewBox="0 0 358.000000 358.000000"
 preserveAspectRatio="xMidYMid meet">
<metadata>
Created by potrace 1.14, written by Peter Selinger 2001-2017
</metadata>
<g transform="translate(0.000000,358.000000) scale(0.100000,-0.100000)"
fill="#000000" stroke="none">
<path d="M0 2245 c0 -1126 2 -1335 14 -1335 7 0 30 16 51 35 21 19 41 32 44
30 4 -2 25 4 46 13 32 14 59 16 130 12 83 -5 91 -3 114 18 13 12 21 25 18 29
-4 3 -2 12 5 20 9 11 7 12 -8 7 -13 -4 -10 2 9 19 16 13 35 35 42 48 27 47 48
94 46 102 -1 5 2 6 7 3 5 -3 20 6 33 21 13 14 18 23 12 19 -30 -17 -9 13 53
75 53 54 66 73 68 102 2 20 8 43 15 50 6 8 8 17 4 20 -3 4 -1 7 5 7 7 0 12 6
12 14 0 8 6 17 13 19 10 4 10 6 0 6 -18 1 -16 23 3 47 8 10 13 13 9 7 -4 -8
-1 -11 9 -7 8 3 12 12 10 19 -3 7 -1 16 4 19 5 3 7 24 5 46 -2 23 0 47 5 53 8
10 21 80 26 142 0 11 5 26 9 33 8 11 16 41 22 82 1 8 7 28 14 43 7 17 11 95
11 200 0 205 9 272 54 420 52 171 73 224 108 283 18 30 40 67 48 82 42 73 78
122 133 180 47 48 65 61 80 56 15 -5 19 -3 14 9 -4 10 2 17 16 21 12 3 42 24
67 48 49 46 167 114 178 103 4 -4 -3 -15 -15 -25 -22 -18 -22 -18 -2 -23 13
-3 28 2 40 14 10 10 25 19 33 19 8 0 28 8 45 17 16 10 32 15 36 12 8 -8 -5
-39 -17 -39 -8 0 -65 -28 -164 -79 -51 -27 -117 -88 -108 -102 4 -8 3 -10 -5
-5 -12 8 -44 -18 -34 -28 4 -3 1 -6 -5 -6 -6 0 -19 -16 -28 -37 -10 -20 -33
-51 -51 -69 -22 -23 -33 -43 -33 -63 0 -31 -25 -65 -41 -56 -14 9 -11 24 11
47 11 12 18 24 15 26 -5 6 -44 -39 -45 -51 0 -4 -9 -27 -20 -49 -26 -53 -25
-61 3 -46 37 21 57 40 51 49 -3 5 2 6 10 3 11 -4 16 0 16 13 0 11 9 29 20 41
11 12 23 35 26 51 4 19 11 28 19 25 7 -3 16 3 19 14 4 11 13 23 21 26 8 3 15
12 15 20 0 7 7 16 15 20 8 3 15 12 15 19 0 19 36 50 49 42 6 -3 11 1 11 9 0 9
5 16 10 16 6 0 10 6 10 13 1 13 73 67 90 67 6 0 10 5 10 10 0 13 45 31 90 35
19 2 47 6 63 10 17 5 27 3 27 -4 0 -6 -5 -11 -10 -11 -6 0 -40 -28 -75 -62
-35 -35 -76 -73 -90 -85 -21 -19 -25 -30 -23 -68 1 -43 18 -78 18 -39 0 16 1
16 15 -2 14 -19 14 -18 15 4 0 12 4 22 9 22 5 0 12 -10 14 -22 l4 -23 2 22 c0
12 10 27 21 33 11 6 18 16 14 22 -4 7 -9 6 -15 -3 -7 -11 -9 -10 -9 4 0 15 5
17 30 12 22 -5 32 -3 36 9 3 9 12 16 20 16 8 0 11 -6 8 -15 -8 -21 10 -19 30
4 11 12 14 21 7 26 -15 9 -14 38 2 32 6 -2 20 9 30 25 14 24 23 28 55 26 20
-1 40 -6 43 -11 4 -5 15 -5 26 2 11 5 23 8 26 5 6 -6 -20 -61 -33 -69 -5 -3
-7 -12 -4 -19 3 -7 -4 -24 -15 -37 -19 -23 -20 -23 -39 -5 -20 17 -20 17 -15
-2 6 -25 -35 -71 -47 -52 -4 7 -13 9 -19 5 -7 -4 -23 1 -36 9 -22 14 -25 14
-25 1 0 -8 14 -22 31 -30 24 -13 29 -20 23 -38 -4 -12 -8 -33 -8 -45 -1 -25
-51 -82 -72 -82 -6 0 -14 -8 -17 -18 -2 -11 -17 -21 -33 -25 -23 -4 -33 -14
-43 -43 -12 -32 -11 -38 2 -46 9 -5 14 -15 11 -23 -5 -12 -28 -15 -113 -15
-58 0 -111 4 -118 8 -15 10 8 43 34 46 12 2 19 13 21 32 2 16 9 35 15 42 6 7
12 25 13 40 3 21 1 24 -7 12 -8 -11 -12 -12 -16 -2 -7 17 -23 5 -23 -19 0 -14
-7 -19 -27 -18 -16 0 -22 3 -15 6 12 5 7 23 -7 23 -4 0 -19 -21 -32 -47 -13
-27 -36 -65 -51 -85 -28 -36 -28 -37 -8 -43 13 -4 19 -12 16 -20 -7 -18 88
-54 140 -53 22 0 50 -5 64 -10 14 -5 37 -8 51 -7 28 3 69 25 69 37 0 5 9 3 20
-4 11 -7 20 -18 20 -25 0 -17 33 -23 110 -21 85 3 260 -18 316 -37 25 -8 56
-15 70 -15 14 0 23 -4 19 -9 -3 -6 3 -14 12 -20 17 -10 17 -10 -2 -11 -18 0
-17 -3 8 -24 16 -14 32 -37 36 -53 4 -15 17 -32 29 -38 12 -5 25 -19 28 -29 8
-25 83 -98 94 -91 8 5 114 -48 140 -70 25 -21 74 -27 124 -14 26 6 44 14 41
17 -3 3 11 22 31 43 44 45 60 103 38 136 -8 13 -12 33 -9 45 5 20 -2 26 -47
47 -29 13 -75 30 -102 37 -27 8 -51 16 -54 19 -11 10 37 4 78 -10 61 -21 68
-19 37 13 -23 23 -43 29 -130 43 l-102 15 77 12 c95 15 154 7 229 -29 32 -16
65 -26 74 -23 8 4 22 1 30 -6 13 -11 14 -10 9 4 -5 12 0 16 17 16 39 0 69 -11
69 -25 0 -7 9 -19 20 -26 14 -10 26 -39 39 -91 10 -43 15 -78 11 -78 -20 0 26
-122 61 -166 6 -7 12 -22 14 -35 3 -13 12 -27 20 -32 9 -5 21 -18 26 -30 17
-37 33 -61 55 -84 l22 -21 8 41 c13 59 31 59 24 0 -5 -40 -2 -53 17 -80 13
-18 21 -33 17 -33 -4 0 5 -11 20 -25 14 -13 26 -28 26 -32 0 -15 194 -201 228
-217 l32 -17 0 941 0 940 -1790 0 -1790 0 0 -1335z m2136 1279 c-20 -14 -77
-19 -89 -7 -4 3 14 14 40 23 53 18 81 8 49 -16z m-262 1 c-21 -16 -54 -20 -54
-6 0 4 -12 6 -27 4 -22 -4 -25 -2 -13 6 8 6 37 11 64 11 46 0 48 -1 30 -15z
m-244 -21 c-19 -8 -43 -13 -55 -11 -15 2 -12 6 15 14 54 17 81 15 40 -3z m167
-10 c-3 -3 -12 -4 -19 -1 -8 3 -5 6 6 6 11 1 17 -2 13 -5z m199 -70 c2 -18 -2
-24 -12 -20 -8 3 -14 -1 -14 -9 0 -8 -4 -15 -9 -15 -14 0 0 43 18 57 9 7 16
13 16 13 0 0 1 -12 1 -26z m-246 12 c0 -3 -4 -8 -10 -11 -5 -3 -10 -1 -10 4 0
6 5 11 10 11 6 0 10 -2 10 -4z m190 -6 c-20 -13 -33 -13 -25 0 3 6 14 10 23
10 15 0 15 -2 2 -10z m-95 -50 c3 -5 -1 -10 -10 -10 -9 0 -13 5 -10 10 3 6 8
10 10 10 2 0 7 -4 10 -10z m132 -264 c-3 -7 -1 -18 5 -24 8 -8 6 -16 -6 -27
-9 -9 -16 -19 -16 -23 0 -3 5 -1 12 6 19 19 30 14 27 -10 -2 -13 1 -34 5 -47
7 -20 4 -29 -13 -43 -13 -9 -20 -21 -18 -25 3 -4 -2 -14 -10 -22 -12 -11 -15
-10 -20 8 -4 16 -9 18 -23 11 -15 -8 -16 -5 -13 18 7 41 25 73 39 68 10 -4 11
1 3 21 -7 18 -6 30 1 37 5 5 10 23 10 38 0 15 5 28 11 28 6 0 9 -6 6 -14z
m-36 -19 c-10 -9 -11 -8 -5 6 3 10 9 15 12 12 3 -3 0 -11 -7 -18z m-121 -187
c0 -13 -12 -19 -26 -13 -8 3 -12 8 -9 12 5 10 35 10 35 1z m120 -20 c0 -5 -4
-10 -10 -10 -5 0 -10 5 -10 10 0 6 5 10 10 10 6 0 10 -4 10 -10z m-540 -143
c0 -5 -8 -6 -17 -2 -10 4 -26 10 -35 12 -10 3 -18 9 -18 13 0 5 16 3 35 -3 19
-6 35 -15 35 -20z m99 -8 c-16 -10 -23 -4 -14 10 3 6 11 8 17 5 6 -4 5 -9 -3
-15z m1355 -31 c-3 -4 -9 -8 -15 -8 -5 0 -9 4 -9 8 0 5 7 9 15 9 8 0 12 -4 9
-9z m379 -200 c3 -21 2 -38 -3 -38 -11 0 -20 27 -20 63 0 41 16 23 23 -25z"/>
<path d="M1930 2979 c0 -5 5 -7 10 -4 6 3 10 8 10 11 0 2 -4 4 -10 4 -5 0 -10
-5 -10 -11z"/>
<path d="M1947 2939 c4 -15 8 -17 14 -8 8 14 3 29 -11 29 -4 0 -6 -9 -3 -21z"/>
<path d="M1830 3297 c-17 -13 -24 -57 -9 -57 5 0 9 6 9 13 0 7 9 18 20 25 11
7 20 17 20 22 0 14 -22 12 -40 -3z"/>
<path d="M1780 3170 c0 -5 5 -10 10 -10 6 0 10 5 10 10 0 6 -4 10 -10 10 -5 0
-10 -4 -10 -10z"/>
<path d="M1670 3070 c-6 -12 -9 -24 -6 -28 9 -9 57 20 53 32 -7 20 -36 17 -47
-4z"/>
<path d="M1130 2885 c-7 -8 -18 -15 -25 -15 -6 0 -20 -19 -30 -42 -41 -99 -78
-185 -96 -221 -11 -21 -19 -47 -19 -59 0 -12 -4 -35 -9 -52 -14 -45 -45 -188
-47 -211 -1 -11 -3 -38 -5 -59 -4 -47 17 -62 27 -19 4 15 10 30 14 33 4 3 31
36 59 74 l53 69 -20 26 c-11 14 -27 25 -37 23 -11 -2 -15 2 -12 10 2 7 9 12
15 11 6 -2 9 4 6 12 -4 8 -14 15 -23 15 -12 1 -9 7 12 25 25 22 26 29 5 26 -3
0 -3 13 2 30 5 17 6 37 3 44 -6 17 8 32 57 63 28 17 31 22 15 22 -20 1 -20 1
-1 15 11 8 26 15 33 15 8 0 28 13 46 30 18 16 40 30 50 30 28 0 20 13 -28 45
-45 30 -58 55 -30 55 8 0 15 5 15 10 0 15 -16 12 -30 -5z"/>
<path d="M1293 2624 c4 -6 -7 -9 -26 -7 -29 4 -31 3 -14 -10 17 -14 15 -17
-29 -39 -34 -16 -51 -33 -62 -57 -26 -64 -12 -235 18 -216 6 4 16 3 23 -2 7
-5 28 -9 47 -8 47 0 149 75 181 130 12 22 26 42 30 45 10 7 13 42 6 60 -3 8
-8 28 -12 43 -4 18 -11 27 -19 24 -7 -3 -27 3 -44 13 -17 10 -39 19 -49 18
-10 0 -27 3 -37 7 -12 5 -17 5 -13 -1z"/>
<path d="M1834 2041 c-12 -12 -191 -24 -198 -13 -9 14 -97 4 -136 -17 -20 -10
-36 -27 -38 -39 -2 -14 -13 -23 -34 -27 -18 -4 -32 -15 -35 -26 -3 -10 -10
-19 -15 -19 -5 0 -2 -7 6 -16 20 -19 21 -35 2 -28 -9 3 -17 -3 -21 -15 -3 -12
-12 -21 -20 -21 -7 0 -16 -11 -19 -24 -3 -13 -14 -26 -24 -28 -24 -7 -45 -84
-46 -168 -1 -54 5 -78 33 -140 19 -41 43 -87 53 -102 24 -35 23 -56 -6 -83
-13 -12 -29 -33 -37 -46 -15 -28 -19 -111 -4 -105 6 1 9 10 7 20 -2 9 1 16 7
16 5 0 8 -15 5 -33 -2 -17 0 -45 4 -61 7 -27 9 -28 24 -12 21 20 29 21 22 1
-4 -10 0 -15 15 -15 12 0 21 -4 21 -10 0 -5 7 -10 16 -10 10 0 14 -5 10 -16
-4 -10 4 -19 27 -28 17 -7 41 -17 52 -21 11 -4 30 -8 42 -9 12 -1 25 -4 29 -8
4 -5 17 -8 29 -8 11 0 26 -5 33 -12 9 -9 12 -9 12 1 0 7 5 9 10 6 6 -4 8 -10
5 -14 -2 -5 32 -9 78 -10 45 -1 101 -4 124 -7 24 -4 58 -1 80 7 49 16 86 18
95 5 5 -8 8 -7 8 1 0 6 20 15 45 19 25 3 48 10 51 15 3 5 14 9 25 9 21 0 26
15 8 25 -6 5 -4 12 8 20 10 7 21 11 26 8 16 -9 56 7 59 24 2 10 10 18 18 19 8
1 25 2 38 2 16 2 22 8 22 25 0 12 7 33 16 45 15 22 44 30 44 12 0 -5 5 -10 10
-10 24 0 -11 38 -40 44 -18 3 -29 10 -25 16 4 6 1 18 -6 26 -9 11 -9 18 3 32
9 9 13 23 10 31 -3 9 0 11 8 6 9 -6 9 -3 1 14 -7 11 -18 21 -26 21 -16 0 -20
21 -7 34 4 4 7 13 7 19 0 7 8 11 18 11 9 -1 17 4 17 12 0 8 -5 13 -11 11 -6
-1 -14 4 -16 11 -3 6 1 12 9 12 7 1 -2 7 -19 15 -18 8 -33 21 -33 31 0 10 -5
14 -15 10 -13 -4 -14 -2 -5 14 6 11 17 20 24 20 18 0 29 31 16 44 -6 6 -20 11
-33 11 -25 0 -30 24 -7 42 12 9 13 14 3 24 -15 15 -17 33 -3 24 5 -3 3 10 -6
30 -8 20 -12 40 -8 46 3 6 -3 13 -15 16 -17 4 -20 10 -14 32 3 14 7 28 9 30 5
6 -42 41 -55 41 -6 0 -11 7 -11 15 0 9 -9 15 -25 15 -15 0 -25 6 -25 15 0 9
-6 12 -16 8 -10 -4 -17 1 -21 15 -3 12 -14 24 -24 27 -10 4 -19 10 -19 15 0 5
-7 7 -15 4 -9 -4 -15 0 -15 8 0 10 -23 21 -65 33 -36 9 -63 21 -60 25 5 9 -62
19 -71 11z m-404 -115 c0 -2 -7 -9 -15 -16 -13 -11 -14 -10 -9 4 5 14 24 23
24 12z m860 -306 c0 -5 -2 -10 -4 -10 -3 0 -8 5 -11 10 -3 6 -1 10 4 10 6 0
11 -4 11 -10z"/>
<path d="M1307 1824 c-4 -4 -7 -17 -7 -28 1 -19 1 -20 11 -3 11 19 8 43 -4 31z"/>
<path d="M2365 1494 l-27 -29 24 -6 c43 -11 62 13 39 50 -7 11 -14 8 -36 -15z"/>
<path d="M2666 1338 c-15 -32 -21 -66 -18 -101 2 -23 22 -12 22 13 0 10 4 20
8 22 12 4 24 98 12 98 -5 0 -16 -15 -24 -32z"/>
<path d="M2375 1350 c3 -5 11 -10 16 -10 6 0 7 5 4 10 -3 6 -11 10 -16 10 -6
0 -7 -4 -4 -10z"/>
<path d="M2409 1328 c-1 -1 -2 -16 -3 -31 -1 -20 2 -27 14 -25 18 4 21 49 3
56 -7 2 -14 2 -14 0z"/>
<path d="M2370 1090 c0 -5 5 -10 11 -10 5 0 7 5 4 10 -3 6 -8 10 -11 10 -2 0
-4 -4 -4 -10z"/>
<path d="M2900 1070 c0 -5 5 -10 10 -10 6 0 10 5 10 10 0 6 -4 10 -10 10 -5 0
-10 -4 -10 -10z"/>
<path d="M2672 1037 c-7 -8 -8 -17 -4 -22 4 -4 -4 -5 -17 -2 -24 6 -91 -18
-91 -32 0 -8 -94 -34 -126 -35 -11 -1 -28 -7 -36 -13 -8 -7 -29 -14 -47 -16
-18 -2 -36 -8 -39 -13 -4 -5 -11 -9 -17 -10 -19 -2 -75 -28 -75 -36 0 -4 -8
-8 -18 -8 -10 0 -31 -13 -45 -30 -19 -21 -36 -30 -57 -30 -17 0 -33 -6 -36
-14 -3 -8 -16 -17 -30 -20 -23 -6 -29 -22 -25 -66 1 -11 -1 -10 -9 3 -6 9 -8
26 -5 37 5 15 1 18 -15 17 -11 -1 -20 -8 -20 -15 0 -8 -6 -12 -15 -8 -8 3 -15
0 -15 -6 0 -7 -5 -6 -15 2 -12 10 -15 9 -17 -6 -2 -31 -3 -37 -17 -76 -7 -21
-17 -38 -22 -38 -5 0 -9 -10 -9 -21 0 -16 -5 -20 -20 -16 -29 7 -25 -11 5 -25
14 -6 25 -15 25 -19 0 -5 7 -6 15 -3 8 4 17 -1 21 -10 8 -22 21 -20 29 4 11
34 20 22 20 -27 0 -56 14 -64 40 -21 15 26 20 29 23 15 2 -9 12 -17 22 -17 13
0 17 6 14 23 -4 20 -4 20 7 -3 7 -14 11 -33 10 -43 -2 -15 2 -17 18 -12 15 4
21 2 21 -8 0 -9 -6 -17 -12 -20 -7 -2 -10 -7 -6 -11 8 -10 48 25 48 42 0 27
17 1 18 -28 1 -38 9 -51 27 -43 10 3 15 -1 15 -15 0 -11 7 -23 16 -26 13 -5
15 -1 10 20 -5 18 -3 30 6 36 11 6 10 10 -2 17 -8 5 -18 7 -22 5 -4 -3 -8 0
-8 6 0 9 23 10 80 6 49 -3 80 -2 80 4 0 6 -10 10 -22 10 -21 0 -21 0 -2 15 17
13 17 16 4 26 -13 9 -12 10 3 5 11 -3 17 0 17 9 0 27 18 15 38 -25 16 -33 22
-38 31 -26 8 10 9 16 1 21 -16 10 -12 33 11 56 l22 22 -7 -37 c-5 -24 -3 -36
5 -36 6 0 9 6 6 14 -7 18 25 27 45 12 21 -16 27 -37 17 -64 -7 -17 -5 -28 6
-38 13 -13 14 -12 9 15 -5 21 -3 31 6 31 8 0 11 18 8 60 -4 75 7 75 42 0 4 -8
18 -16 31 -17 16 -2 19 0 9 5 -18 9 -26 42 -9 42 6 0 9 8 6 20 -3 11 -1 22 3
25 5 3 3 17 -5 31 -13 26 -11 54 6 54 4 0 6 -7 3 -15 -7 -18 12 -45 32 -45 8
0 14 7 14 15 0 9 9 15 23 16 21 0 21 1 2 8 -19 8 -19 8 3 15 12 4 30 5 40 2
16 -5 18 -1 16 26 -2 18 -1 25 2 16 7 -24 23 -23 21 2 -1 11 -5 20 -9 20 -19
0 -6 18 17 24 14 4 25 13 25 21 0 8 5 15 10 15 14 0 12 -27 -2 -33 -10 -3 -9
-9 2 -21 14 -14 18 -15 35 -1 18 13 18 14 3 15 -21 0 -23 11 -6 28 9 9 6 16
-11 31 -12 10 -17 21 -12 23 6 1 12 19 13 38 3 32 0 35 -24 38 -16 2 -28 7
-28 12 0 5 -3 15 -6 23 -4 12 0 14 17 10 13 -4 18 -8 11 -11 -20 -6 -13 -25 8
-19 11 3 20 2 20 -2 0 -4 19 -8 43 -8 23 -1 33 1 22 4 -30 8 -42 22 -26 32 11
7 9 10 -8 16 -21 6 -22 7 -4 21 17 13 17 14 -4 20 -13 3 -23 13 -23 20 0 8 -4
14 -10 14 -5 0 -10 -7 -10 -15 0 -8 -6 -15 -13 -15 -22 0 -28 12 -14 28 10 13
9 15 -9 10 -17 -4 -20 -2 -17 13 4 14 1 18 -10 13 -9 -3 -18 -12 -21 -20 -9
-23 -25 -16 -19 9 5 21 5 21 -9 3 -14 -18 -16 -18 -25 -2 -8 15 -11 15 -21 3z
m99 -77 c13 -10 18 -19 12 -20 -7 0 -13 5 -13 10 0 6 -9 10 -19 10 -11 0 -23
5 -26 10 -11 18 22 11 46 -10z m79 -14 c0 -9 -30 -14 -35 -6 -4 6 3 10 14 10
12 0 21 -2 21 -4z m-5 -86 c3 -5 -1 -10 -9 -10 -8 0 -18 5 -21 10 -3 6 1 10 9
10 8 0 18 -4 21 -10z m-5 -30 c0 -5 -17 -9 -37 -9 -38 1 -38 1 -8 9 43 11 45
11 45 0z m-876 -128 c2 -4 1 -14 -3 -21 -6 -9 -10 -7 -14 8 -5 20 7 29 17 13z
m-43 -25 c-10 -9 -11 -8 -5 6 3 10 9 15 12 12 3 -3 0 -11 -7 -18z m749 -33 c0
-8 -4 -12 -10 -9 -5 3 -10 10 -10 16 0 5 5 9 10 9 6 0 10 -7 10 -16z m-603
-146 c-3 -7 -5 -2 -5 12 0 14 2 19 5 13 2 -7 2 -19 0 -25z m48 -16 c-8 -8 -25
10 -19 20 4 6 9 5 15 -3 4 -7 6 -15 4 -17z m164 -53 c-19 -12 -39 -11 -39 1 0
6 9 10 20 10 11 0 20 6 21 13 0 8 2 8 6 -2 3 -7 -1 -17 -8 -22z"/>
<path d="M2230 980 c0 -5 5 -10 10 -10 6 0 10 5 10 10 0 6 -4 10 -10 10 -5 0
-10 -4 -10 -10z"/>
<path d="M2860 818 c0 -20 1 -21 20 -3 11 10 20 20 20 22 0 1 -9 3 -20 3 -14
0 -20 -7 -20 -22z"/>
<path d="M1860 715 c0 -8 4 -15 10 -15 5 0 7 7 4 15 -4 8 -8 15 -10 15 -2 0
-4 -7 -4 -15z"/>
<path d="M1820 606 c0 -9 5 -16 10 -16 6 0 10 4 10 9 0 6 -4 13 -10 16 -5 3
-10 -1 -10 -9z"/>
<path d="M2735 610 c3 -5 14 -10 23 -10 15 0 15 2 2 10 -20 13 -33 13 -25 0z"/>
<path d="M2750 560 c0 -5 5 -10 10 -10 6 0 10 5 10 10 0 6 -4 10 -10 10 -5 0
-10 -4 -10 -10z"/>
<path d="M2670 549 c0 -8 4 -20 9 -27 7 -11 9 -11 14 1 3 9 -1 21 -9 27 -11
10 -14 10 -14 -1z"/>
<path d="M2695 550 c3 -5 13 -10 21 -10 8 0 12 5 9 10 -3 6 -13 10 -21 10 -8
0 -12 -4 -9 -10z"/>
<path d="M2638 483 c7 -3 16 -2 19 1 4 3 -2 6 -13 5 -11 0 -14 -3 -6 -6z"/>
<path d="M2473 446 c0 -18 4 -22 18 -19 22 6 24 14 7 31 -18 18 -25 15 -25
-12z"/>
<path d="M2580 452 c0 -5 7 -15 15 -22 8 -7 15 -8 15 -2 0 5 -7 15 -15 22 -8
7 -15 8 -15 2z"/>
<path d="M2010 430 c0 -19 3 -21 12 -12 9 9 9 15 0 24 -9 9 -12 7 -12 -12z"/>
<path d="M2335 380 c-3 -5 -2 -10 4 -10 5 0 13 5 16 10 3 6 2 10 -4 10 -5 0
-13 -4 -16 -10z"/>
<path d="M2420 296 c0 -9 5 -16 10 -16 6 0 10 4 10 9 0 6 -4 13 -10 16 -5 3
-10 -1 -10 -9z"/>
<path d="M2456 216 c3 -9 11 -16 16 -16 13 0 5 23 -10 28 -7 2 -10 -2 -6 -12z"/>
<path d="M2460 180 c0 -5 5 -10 10 -10 6 0 10 5 10 10 0 6 -4 10 -10 10 -5 0
-10 -4 -10 -10z"/>
<path d="M2258 23 c18 -2 45 -2 60 0 15 2 0 4 -33 4 -33 0 -45 -2 -27 -4z"/>
</g>
</svg>
